<?xml version="1.0" encoding="utf-8"?>
<!-- Generator: Adobe Illustrator 21.1.0, SVG Export Plug-In . SVG Version: 6.00 Build 0)  -->
<svg version="1.1" id="Layer_1" xmlns="http://www.w3.org/2000/svg" xmlns:xlink="http://www.w3.org/1999/xlink" x="0px" y="0px"
	 viewBox="0 0 129 75.2" style="enable-background:new 0 0 129 75.2;" xml:space="preserve">
<style type="text/css">
	.st0{fill:#263576;}
	.st1{fill:#FFFFFF;}
	.st2{fill:#E62530;}
</style>
<g>
	<path class="st0" d="M2.8,63.4h0.9l2,5.4H4.6l-0.5-1.3H2.3l-0.5,1.3H0.7L2.8,63.4z M4,66.7l-0.7-2.1l-0.8,2.1H4z"/>
	<path class="st0" d="M6.3,68.8v-5.4h1v4.5H10v0.9H6.3z"/>
	<path class="st0" d="M10.7,68.8v-5.4h1v5.4H10.7z"/>
	<path class="st0" d="M17.3,68.8v-3.6l-1.4,2.7h-0.6l-1.4-2.7v3.6h-1v-5.4H14l1.6,3.1l1.6-3.1h1.1v5.4H17.3z"/>
	<path class="st0" d="M23.2,67.9v0.9h-3.7v-5.4h3.7v0.9h-2.6v1.3h2.3v0.8h-2.3v1.4L23.2,67.9L23.2,67.9z"/>
	<path class="st0" d="M25,65.3v3.4h-1v-5.4h0.8l2.8,3.5v-3.5h1v5.4h-0.8L25,65.3z"/>
	<path class="st0" d="M33.8,64.3h-1.7v4.5h-1v-4.5h-1.7v-0.9h4.5L33.8,64.3L33.8,64.3z"/>
	<path class="st0" d="M35.5,63.4h0.9l2,5.4h-1.1l-0.5-1.3H35l-0.5,1.3h-1.1L35.5,63.4z M36.7,66.7L36,64.6l-0.8,2.1H36.7z"/>
	<path class="st0" d="M43.4,68.8v-3.6L42,67.9h-0.6L40,65.2v3.6h-1v-5.4h1.1l1.6,3.1l1.6-3.1h1.1v5.4H43.4z"/>
	<path class="st0" d="M47.9,68.8c-0.4,0-0.8-0.1-1.1-0.2c-0.3-0.2-0.6-0.4-0.8-0.6c-0.2-0.3-0.4-0.5-0.5-0.9c-0.1-0.3-0.2-0.7-0.2-1
		c0-0.4,0.1-0.7,0.2-1c0.1-0.3,0.3-0.6,0.6-0.9c0.2-0.3,0.5-0.5,0.8-0.6s0.7-0.2,1.1-0.2c0.4,0,0.7,0.1,1.1,0.2
		c0.3,0.2,0.6,0.4,0.8,0.6c0.2,0.3,0.4,0.6,0.5,0.9s0.2,0.7,0.2,1c0,0.4-0.1,0.7-0.2,1c-0.1,0.3-0.3,0.6-0.5,0.9s-0.5,0.4-0.8,0.6
		C48.6,68.8,48.2,68.8,47.9,68.8z M46.3,66.1c0,0.2,0,0.5,0.1,0.7s0.2,0.4,0.3,0.6s0.3,0.3,0.5,0.4s0.4,0.2,0.7,0.2s0.5-0.1,0.7-0.2
		s0.4-0.2,0.5-0.4c0.1-0.2,0.2-0.4,0.3-0.6s0.1-0.4,0.1-0.7c0-0.2,0-0.5-0.1-0.7s-0.2-0.4-0.3-0.6s-0.3-0.3-0.5-0.4
		s-0.4-0.1-0.7-0.1s-0.5,0.1-0.7,0.2s-0.4,0.2-0.5,0.4c-0.1,0.2-0.2,0.4-0.3,0.6S46.3,65.9,46.3,66.1z"/>
	<path class="st0" d="M54.5,64.8c0,0-0.1-0.1-0.2-0.1c-0.1-0.1-0.2-0.1-0.3-0.2s-0.3-0.1-0.4-0.1c-0.2,0-0.3-0.1-0.5-0.1
		c-0.3,0-0.5,0.1-0.6,0.2s-0.2,0.3-0.2,0.4s0,0.2,0.1,0.3c0.1,0.1,0.1,0.1,0.2,0.2c0.1,0.1,0.2,0.1,0.4,0.2c0.2,0,0.3,0.1,0.5,0.1
		c0.3,0.1,0.5,0.1,0.7,0.2s0.4,0.2,0.5,0.3c0.1,0.1,0.3,0.3,0.3,0.4c0.1,0.2,0.1,0.4,0.1,0.6c0,0.3-0.1,0.5-0.2,0.7
		c-0.1,0.2-0.3,0.4-0.4,0.5c-0.2,0.1-0.4,0.2-0.6,0.3c-0.2,0.1-0.5,0.1-0.8,0.1c-0.4,0-0.8-0.1-1.2-0.2s-0.7-0.3-1.1-0.5l0.5-0.9
		c0,0,0.1,0.1,0.2,0.2c0.1,0.1,0.3,0.1,0.4,0.2c0.2,0.1,0.3,0.1,0.5,0.2s0.4,0.1,0.6,0.1c0.6,0,0.9-0.2,0.9-0.6c0-0.1,0-0.2-0.1-0.3
		c-0.1-0.1-0.2-0.2-0.3-0.2c-0.1-0.1-0.3-0.1-0.4-0.2c-0.2,0-0.4-0.1-0.6-0.2c-0.3-0.1-0.5-0.1-0.7-0.2s-0.3-0.2-0.5-0.3
		c-0.1-0.1-0.2-0.2-0.3-0.4c-0.1-0.1-0.1-0.3-0.1-0.5c0-0.3,0.1-0.5,0.2-0.7c0.1-0.2,0.2-0.4,0.4-0.5s0.4-0.2,0.6-0.3
		c0.2-0.1,0.5-0.1,0.8-0.1c0.4,0,0.7,0.1,1,0.2c0.3,0.1,0.6,0.3,0.8,0.4L54.5,64.8z"/>
	<path class="st0" d="M60,67.9c0.2,0,0.5,0,0.6-0.2c0.2-0.1,0.3-0.2,0.4-0.4c0.1-0.2,0.2-0.3,0.2-0.6c0-0.2,0.1-0.4,0.1-0.6v-2.7h1
		v2.7c0,0.4,0,0.7-0.1,1s-0.2,0.6-0.4,0.8c-0.2,0.2-0.4,0.4-0.7,0.6c-0.3,0.1-0.7,0.2-1.1,0.2c-0.4,0-0.8-0.1-1.1-0.2
		s-0.5-0.3-0.7-0.6c-0.2-0.2-0.3-0.5-0.4-0.9s-0.1-0.7-0.1-1v-2.7h1V66c0,0.2,0,0.4,0.1,0.7c0,0.2,0.1,0.4,0.2,0.6
		c0.1,0.2,0.2,0.3,0.4,0.4C59.6,67.9,59.8,67.9,60,67.9z"/>
	<path class="st0" d="M64.5,65.3v3.4h-1v-5.4h0.8l2.8,3.5v-3.5h1v5.4h-0.8L64.5,65.3z"/>
	<path class="st0" d="M75.4,68.8v-3.6L74,67.9h-0.6L72,65.2v3.6h-1v-5.4h1.1l1.6,3.1l1.6-3.1h1.1v5.4H75.4z"/>
	<path class="st0" d="M79.8,67.9c0.2,0,0.5,0,0.6-0.2c0.2-0.1,0.3-0.2,0.4-0.4c0.1-0.2,0.2-0.3,0.2-0.6c0-0.2,0.1-0.4,0.1-0.6v-2.7
		h1v2.7c0,0.4,0,0.7-0.1,1s-0.2,0.6-0.4,0.8c-0.2,0.2-0.4,0.4-0.7,0.6s-0.7,0.2-1.1,0.2s-0.8-0.1-1.1-0.2c-0.3-0.1-0.5-0.3-0.7-0.6
		c-0.2-0.2-0.3-0.5-0.4-0.9s-0.1-0.7-0.1-1v-2.7h1V66c0,0.2,0,0.4,0.1,0.7c0,0.2,0.1,0.4,0.2,0.6s0.2,0.3,0.4,0.4
		C79.4,67.9,79.6,67.9,79.8,67.9z"/>
	<path class="st0" d="M84.3,65.3v3.4h-1v-5.4h0.8l2.8,3.5v-3.5h1v5.4h-0.8L84.3,65.3z"/>
	<path class="st0" d="M89,68.8v-5.4h2c0.4,0,0.8,0.1,1.2,0.2c0.3,0.1,0.6,0.3,0.8,0.6c0.2,0.2,0.4,0.5,0.5,0.9
		c0.1,0.3,0.2,0.7,0.2,1c0,0.4-0.1,0.8-0.2,1.1c-0.1,0.3-0.3,0.6-0.5,0.8c-0.2,0.2-0.5,0.4-0.8,0.5s-0.7,0.2-1.1,0.2L89,68.8
		L89,68.8z M92.6,66.1c0-0.3,0-0.5-0.1-0.7s-0.2-0.4-0.3-0.6c-0.1-0.2-0.3-0.3-0.5-0.4s-0.4-0.1-0.7-0.1h-0.9v3.5H91
		c0.3,0,0.5,0,0.7-0.1s0.4-0.2,0.5-0.4c0.1-0.2,0.2-0.3,0.3-0.6C92.5,66.6,92.6,66.3,92.6,66.1z"/>
	<path class="st0" d="M96.7,68.8c-0.4,0-0.8-0.1-1.1-0.2c-0.3-0.2-0.6-0.4-0.8-0.6c-0.2-0.3-0.4-0.5-0.5-0.9c-0.1-0.3-0.2-0.7-0.2-1
		c0-0.4,0.1-0.7,0.2-1s0.3-0.6,0.6-0.9c0.2-0.3,0.5-0.5,0.8-0.6s0.7-0.2,1.1-0.2s0.7,0.1,1.1,0.2c0.3,0.2,0.6,0.4,0.8,0.6
		c0.2,0.3,0.4,0.6,0.5,0.9s0.2,0.7,0.2,1c0,0.4-0.1,0.7-0.2,1s-0.3,0.6-0.5,0.9s-0.5,0.4-0.8,0.6C97.5,68.8,97.1,68.8,96.7,68.8z
		 M95.2,66.1c0,0.2,0,0.5,0.1,0.7s0.2,0.4,0.3,0.6c0.1,0.2,0.3,0.3,0.5,0.4s0.4,0.2,0.7,0.2c0.3,0,0.5-0.1,0.7-0.2s0.4-0.2,0.5-0.4
		c0.1-0.2,0.2-0.4,0.3-0.6c0.1-0.2,0.1-0.4,0.1-0.7c0-0.2,0-0.5-0.1-0.7S98.1,65,98,64.8c-0.1-0.2-0.3-0.3-0.5-0.4s-0.4-0.1-0.7-0.1
		c-0.3,0-0.5,0.1-0.7,0.2s-0.4,0.2-0.5,0.4c-0.1,0.2-0.2,0.4-0.3,0.6C95.2,65.7,95.2,65.9,95.2,66.1z"/>
	<path class="st0" d="M106.4,68.8v-3.6l-1.4,2.7h-0.6l-1.4-2.7v3.6h-1v-5.4h1.1l1.6,3.1l1.6-3.1h1.1v5.4H106.4z"/>
	<path class="st0" d="M112.3,67.9v0.9h-3.7v-5.4h3.7v0.9h-2.6v1.3h2.3v0.8h-2.3v1.4L112.3,67.9L112.3,67.9z"/>
	<path class="st0" d="M112.8,67.7c0.1,0,0.2,0.1,0.4,0.2c0.2,0.1,0.4,0.1,0.6,0.1s0.4,0,0.5-0.1s0.2-0.2,0.3-0.3
		c0.1-0.2,0.1-0.3,0.1-0.6c0-0.2,0-0.5,0-0.8v-2.7h1v2.7c0,0.4,0,0.8-0.1,1.1c0,0.3-0.1,0.6-0.3,0.9c-0.1,0.2-0.3,0.4-0.6,0.6
		c-0.3,0.1-0.6,0.2-1.1,0.2s-0.8-0.1-1.2-0.3L112.8,67.7z"/>
	<path class="st0" d="M119.1,68.8c-0.4,0-0.8-0.1-1.1-0.2c-0.3-0.2-0.6-0.4-0.8-0.6c-0.2-0.3-0.4-0.5-0.5-0.9
		c-0.1-0.3-0.2-0.7-0.2-1c0-0.4,0.1-0.7,0.2-1s0.3-0.6,0.6-0.9c0.2-0.3,0.5-0.5,0.8-0.6s0.7-0.2,1.1-0.2s0.7,0.1,1.1,0.2
		c0.3,0.2,0.6,0.4,0.8,0.6c0.2,0.3,0.4,0.6,0.5,0.9s0.2,0.7,0.2,1c0,0.4-0.1,0.7-0.2,1s-0.3,0.6-0.5,0.9s-0.5,0.4-0.8,0.6
		C119.8,68.8,119.5,68.8,119.1,68.8z M117.5,66.1c0,0.2,0,0.5,0.1,0.7s0.2,0.4,0.3,0.6c0.1,0.2,0.3,0.3,0.5,0.4s0.4,0.2,0.7,0.2
		c0.3,0,0.5-0.1,0.7-0.2s0.4-0.2,0.5-0.4c0.1-0.2,0.2-0.4,0.3-0.6c0.1-0.2,0.1-0.4,0.1-0.7c0-0.2,0-0.5-0.1-0.7s-0.2-0.4-0.3-0.6
		c-0.1-0.2-0.3-0.3-0.5-0.4s-0.4-0.1-0.7-0.1c-0.3,0-0.5,0.1-0.7,0.2s-0.4,0.2-0.5,0.4c-0.1,0.2-0.2,0.4-0.3,0.6
		C117.6,65.7,117.5,65.9,117.5,66.1z"/>
	<path class="st0" d="M122.5,68.8v-5.4h2.4c0.2,0,0.5,0.1,0.7,0.2c0.2,0.1,0.4,0.2,0.5,0.4c0.2,0.2,0.3,0.4,0.4,0.6s0.1,0.4,0.1,0.6
		c0,0.3-0.1,0.7-0.3,1c-0.2,0.3-0.4,0.5-0.7,0.6l1.2,2h-1.2l-1.1-1.8h-1v1.8C123.5,68.8,122.5,68.8,122.5,68.8z M123.6,66.1h1.3
		c0.1,0,0.2,0,0.3-0.1s0.2-0.1,0.2-0.2c0.1-0.1,0.1-0.2,0.1-0.3c0-0.1,0.1-0.2,0.1-0.3c0-0.1,0-0.2-0.1-0.3c0-0.1-0.1-0.2-0.2-0.3
		c-0.1-0.1-0.1-0.1-0.2-0.2c-0.1,0-0.2-0.1-0.3-0.1h-1.3L123.6,66.1L123.6,66.1z"/>
</g>
<g>
	<path class="st1" d="M14.3,6.1c-20.1,12.4-8.7,49.1-8.7,50c25.5-17.1,87,7,107.6-4.1c20.3-11,9-46.9,9-46.9
		C90.7,21,33.7-5.9,14.3,6.1z"/>
	<path class="st0" d="M123.3,3.9C123.3,3.9,123.2,3.9,123.3,3.9L114.5,1c-0.1,0-0.2,0-0.3,0l-0.3-0.1c-7.2,6.5-20.3,7.1-35.1,6
		c-6.5-0.5-13.3-1.3-20.1-2.2C53.9,4.2,49,3.6,44.2,3.2c-0.2,0-0.5,0-0.8-0.1c-0.5,0-1.1-0.1-1.6-0.1c-5.4-0.5-10.5-0.8-15.2-0.8
		C13.4,2.5,3.5,8.9,1.1,27.2c0,0.1,0,0.2,0,0.2c0,0.1,0,0.2,0,0.2c-1.8,14.6,2.6,30,3.1,30.3c0.1,0,0.1,0.1,0.2,0.1l7.3,1.4h0.1
		c0.1,0,0.2,0,0.3-0.1c10-9.1,33.4-6.7,55.9-4.4c11.6,1.3,23.5,2.5,33.3,2.1c1.6-0.1,3.1-0.2,4.6-0.4c12.5-1.9,19.1-9.8,20.6-24.4
		C128.2,17.1,123.6,4.1,123.3,3.9 M14,6.7c19.4-11.9,76.5,14.7,107.7-1c0,0,11.3,35.3-9,46.1C92.2,62.8,30.6,39,5.1,55.9
		C5.3,55.1-6,18.9,14,6.7 M84.7,55.5c0.4,0,1,0.1,1.4,0.1C85.7,55.6,85.1,55.5,84.7,55.5"/>
	<path class="st2" d="M31.2,30.7c1.6-1.1,2.5-2.7,2.5-4.8c0-4.2-2.7-6.4-8-6.4H14.3v24.6h11.8c4,0,8.7-1.9,8.7-7.3
		C34.8,33.8,33.6,31.8,31.2,30.7 M25.4,39h-5V24.5h4.3c2.7,0,3,1.1,3,2.2c0,1.5-0.9,2.3-2.6,2.3h-1.5l-2.1,4.5h4
		c2.2,0,3.1,0.9,3.1,2.8C28.8,37.5,28.3,39,25.4,39"/>
	<rect x="36.3" y="19.5" class="st2" width="6.2" height="24.6"/>
	<polygon class="st2" points="57.3,33.3 54.2,19.4 44.5,19.4 44.5,43.9 50.6,43.9 50.6,28.9 54.2,43.9 60.4,43.9 64,28.7 64,43.9 
		70.1,43.9 70.1,19.4 60.4,19.4 	"/>
	<path class="st2" d="M89.3,30.8c1.6-1.1,2.5-2.7,2.5-4.8c0-4.2-2.7-6.4-8-6.4H72.4v24.6h11.8c4,0,8.7-1.9,8.7-7.3
		C92.9,34,91.6,31.9,89.3,30.8 M83.5,39.1h-5V24.8h4.3c2.7,0,3,1.1,3,2.2c0,1.5-0.9,2.3-2.6,2.3h-1.4l-2.3,4.5h4
		c2.2,0,3.1,0.9,3.1,2.8C86.8,37.7,86.4,39.1,83.5,39.1"/>
	<path class="st2" d="M106,19.2c-6.8,0-12.3,5.5-12.3,12.3s5.5,12.3,12.3,12.3s12.3-5.5,12.3-12.3C118.4,24.8,112.9,19.2,106,19.2
		 M106,38c-3.5,0-6.5-2.9-6.5-6.5s2.9-6.5,6.5-6.5s6.4,2.9,6.4,6.5C112.5,35.2,109.5,38,106,38"/>
	<g>
		<path class="st0" d="M22.4,16.3c-0.5,0.3-1.1,0.5-1.7,0.6c-0.6,0.1-1.2,0.2-1.8,0.2c-0.6,0-1.2-0.1-1.8-0.3
			c-0.5-0.2-1-0.5-1.4-0.8c-0.4-0.4-0.7-0.8-0.9-1.3c-0.2-0.5-0.3-1.1-0.3-1.7c0-0.6,0.1-1.2,0.3-1.7c0.2-0.5,0.5-0.9,0.9-1.3
			c0.4-0.4,0.9-0.6,1.4-0.8C17.8,9,18.4,8.9,19,8.9c0.7,0,1.3,0.1,1.8,0.2c0.5,0.2,1,0.4,1.4,0.8L21,11.2c-0.2-0.2-0.5-0.4-0.8-0.5
			c-0.3-0.1-0.7-0.2-1.2-0.2c-0.4,0-0.7,0.1-1,0.2c-0.3,0.1-0.6,0.3-0.8,0.5c-0.2,0.2-0.4,0.5-0.5,0.8c-0.1,0.3-0.2,0.6-0.2,1
			c0,0.4,0.1,0.7,0.2,1c0.1,0.3,0.3,0.6,0.5,0.8c0.2,0.2,0.5,0.4,0.8,0.5c0.3,0.1,0.7,0.2,1,0.2c0.4,0,0.7,0,1-0.1
			c0.3-0.1,0.5-0.2,0.7-0.3v-1.3h-1.5v-1.6h3.2V16.3z"/>
		<path class="st0" d="M23.5,9.1h3.2c0.4,0,0.8,0,1.2,0.1c0.4,0.1,0.7,0.2,1,0.4c0.3,0.2,0.5,0.4,0.7,0.7c0.2,0.3,0.2,0.7,0.2,1.1
			c0,0.5-0.1,1-0.4,1.4c-0.3,0.4-0.7,0.6-1.3,0.7l2.1,3.3h-2.2l-1.7-3.1h-0.9v3.1h-1.8V9.1z M25.3,12.3h1.1c0.2,0,0.3,0,0.5,0
			c0.2,0,0.3,0,0.5-0.1c0.1-0.1,0.3-0.1,0.4-0.3c0.1-0.1,0.1-0.3,0.1-0.5c0-0.2,0-0.4-0.1-0.5c-0.1-0.1-0.2-0.2-0.3-0.3
			c-0.1-0.1-0.3-0.1-0.4-0.1c-0.2,0-0.3,0-0.5,0h-1.2V12.3z"/>
		<path class="st0" d="M37.4,13.9c0,0.5-0.1,0.9-0.2,1.3c-0.1,0.4-0.4,0.7-0.6,1c-0.3,0.3-0.6,0.5-1.1,0.7C35,17,34.5,17.1,34,17.1
			c-0.6,0-1.1-0.1-1.5-0.2c-0.4-0.2-0.8-0.4-1.1-0.7c-0.3-0.3-0.5-0.6-0.6-1c-0.1-0.4-0.2-0.8-0.2-1.3V9.1h1.8v4.7
			c0,0.2,0,0.5,0.1,0.7s0.2,0.4,0.3,0.5c0.1,0.1,0.3,0.3,0.5,0.3c0.2,0.1,0.4,0.1,0.7,0.1c0.2,0,0.5,0,0.7-0.1
			c0.2-0.1,0.4-0.2,0.5-0.3c0.1-0.2,0.3-0.3,0.3-0.5c0.1-0.2,0.1-0.4,0.1-0.7V9.1h1.8V13.9z"/>
		<path class="st0" d="M38.6,9.1h3c0.4,0,0.8,0,1.2,0.1c0.4,0.1,0.7,0.2,1,0.4c0.3,0.2,0.5,0.4,0.7,0.7c0.2,0.3,0.2,0.7,0.2,1.1
			c0,0.5-0.1,0.8-0.2,1.1c-0.2,0.3-0.4,0.6-0.6,0.7c-0.3,0.2-0.6,0.3-1,0.4c-0.4,0.1-0.8,0.1-1.2,0.1h-1.3v3h-1.8V9.1z M40.4,12.4
			h1.2c0.2,0,0.3,0,0.5,0c0.1,0,0.3-0.1,0.4-0.1c0.1-0.1,0.2-0.2,0.3-0.3c0.1-0.1,0.1-0.3,0.1-0.5c0-0.2,0-0.4-0.1-0.5
			c-0.1-0.1-0.2-0.2-0.4-0.3c-0.2-0.1-0.3-0.1-0.5-0.1c-0.2,0-0.4,0-0.5,0h-0.9V12.4z"/>
		<path class="st0" d="M45.4,13c0-0.6,0.1-1.2,0.3-1.7c0.2-0.5,0.5-0.9,0.9-1.3C47,9.6,47.5,9.4,48,9.2c0.5-0.2,1.1-0.3,1.8-0.3
			c0.6,0,1.2,0.1,1.8,0.3c0.5,0.2,1,0.5,1.4,0.8c0.4,0.4,0.7,0.8,0.9,1.3c0.2,0.5,0.3,1.1,0.3,1.7c0,0.6-0.1,1.2-0.3,1.7
			c-0.2,0.5-0.5,0.9-0.9,1.3c-0.4,0.4-0.9,0.6-1.4,0.8c-0.5,0.2-1.1,0.3-1.8,0.3c-0.6,0-1.2-0.1-1.8-0.3c-0.5-0.2-1-0.5-1.4-0.8
			c-0.4-0.4-0.7-0.8-0.9-1.3C45.5,14.2,45.4,13.6,45.4,13 M47.3,13c0,0.4,0.1,0.7,0.2,1c0.1,0.3,0.3,0.6,0.5,0.8
			c0.2,0.2,0.5,0.4,0.8,0.5s0.7,0.2,1,0.2c0.4,0,0.7-0.1,1-0.2c0.3-0.1,0.6-0.3,0.8-0.5c0.2-0.2,0.4-0.5,0.5-0.8
			c0.1-0.3,0.2-0.6,0.2-1c0-0.4-0.1-0.7-0.2-1c-0.1-0.3-0.3-0.6-0.5-0.8c-0.2-0.2-0.5-0.4-0.8-0.5c-0.3-0.1-0.7-0.2-1-0.2
			c-0.4,0-0.7,0.1-1,0.2c-0.3,0.1-0.6,0.3-0.8,0.5c-0.2,0.2-0.4,0.5-0.5,0.8C47.3,12.3,47.3,12.6,47.3,13"/>
	</g>
	<path class="st0" d="M121.2,56.1c0-0.4,0.1-0.7,0.2-1c0.1-0.3,0.3-0.6,0.6-0.8c0.2-0.2,0.5-0.4,0.8-0.6c0.3-0.1,0.7-0.2,1-0.2
		c0.4,0,0.7,0.1,1,0.2c0.3,0.1,0.6,0.3,0.8,0.5c0.2,0.2,0.4,0.5,0.6,0.8c0.1,0.3,0.2,0.7,0.2,1c0,0.4-0.1,0.7-0.2,1
		c-0.1,0.3-0.3,0.6-0.6,0.8c-0.2,0.2-0.5,0.4-0.8,0.6c-0.3,0.1-0.7,0.2-1,0.2c-0.4,0-0.7-0.1-1-0.2c-0.3-0.1-0.6-0.3-0.8-0.5
		c-0.2-0.2-0.4-0.5-0.6-0.8C121.3,56.8,121.2,56.5,121.2,56.1 M121.7,56.1c0,0.3,0.1,0.6,0.2,0.9c0.1,0.3,0.3,0.5,0.5,0.7
		c0.2,0.2,0.4,0.4,0.7,0.5c0.3,0.1,0.6,0.2,0.9,0.2c0.3,0,0.6-0.1,0.9-0.2c0.3-0.1,0.5-0.3,0.7-0.5c0.2-0.2,0.4-0.4,0.5-0.7
		c0.1-0.3,0.2-0.6,0.2-0.9c0-0.3-0.1-0.6-0.2-0.9c-0.1-0.3-0.3-0.5-0.5-0.7c-0.2-0.2-0.4-0.4-0.7-0.5c-0.3-0.1-0.6-0.2-0.9-0.2
		c-0.3,0-0.6,0.1-0.9,0.2c-0.3,0.1-0.5,0.3-0.7,0.5c-0.2,0.2-0.4,0.4-0.5,0.7C121.7,55.5,121.7,55.8,121.7,56.1 M122.9,54.6h1.1
		c0.4,0,0.6,0.1,0.8,0.2c0.2,0.1,0.3,0.4,0.3,0.7c0,0.3-0.1,0.5-0.2,0.6c-0.2,0.1-0.3,0.2-0.6,0.2l0.9,1.3h-0.5l-0.8-1.3h-0.5v1.3
		h-0.4V54.6z M123.3,56h0.5c0.1,0,0.2,0,0.3,0c0.1,0,0.2,0,0.3-0.1c0.1,0,0.1-0.1,0.2-0.1c0-0.1,0.1-0.2,0.1-0.3
		c0-0.1,0-0.2-0.1-0.3c0-0.1-0.1-0.1-0.2-0.1c-0.1,0-0.1-0.1-0.2-0.1c-0.1,0-0.2,0-0.2,0h-0.7V56z"/>
</g>
</svg>
